<svg xmlns="http://www.w3.org/2000/svg" viewBox="0 0 28 28"><path d="M8.6.285,5.137,8.118H1.679A8.343,8.343,0,0,0,0,8.271L1.435,4.92l.057-.126.086-.223a2.185,2.185,0,0,1,.115-.251C3.358.564,5.223-.609,8.6.285Z" transform="translate(5.321 0)" fill="#f4c400"/><path d="M11.638,7.777l-.029-.014A9.844,9.844,0,0,0,8.983,7.4H0L3.229.1,3.272,0c.2.07.416.168.631.237l3.171,1.3a9.523,9.523,0,0,1,3.76,2.346c.129.168.244.321.359.5a2.1,2.1,0,0,1,.287.6,1.835,1.835,0,0,1,.129.363A4.765,4.765,0,0,1,11.638,7.777Z" transform="translate(12.017 0.717)" fill="#f4c400"/><path d="M23.023.279A7.439,7.439,0,0,0,21,0H7A7.013,7.013,0,0,0,4.246.545,6.831,6.831,0,0,0,0,6.814V9.536a7.68,7.68,0,0,0,.072.991q.473,6.66,7.316,7.107a7.945,7.945,0,0,0,1.018.07H19.594c5.307,0,8.1-2.457,8.377-7.344.014-.265.029-.545.029-.824V6.814A6.868,6.868,0,0,0,23.023.279ZM17.586,10.374H10.414a1.048,1.048,0,1,1,0-2.094h7.172a1.048,1.048,0,1,1,0,2.094Z" transform="translate(0 10.296)" fill="#0177fc"/></svg>