<svg xmlns="http://www.w3.org/2000/svg" width="23" height="23" viewBox="0 0 23 23"><g transform="translate(-172 -252)"><g transform="translate(172 252)"><path d="M3.436,0a3.432,3.432,0,0,0-.087,6.864.584.584,0,0,1,.159,0h.051A3.433,3.433,0,0,0,3.436,0Z" transform="translate(8.064 4.266)" fill="curretColor" opacity="0.999"/><path d="M8.766,1.009a7.182,7.182,0,0,0-7.341,0A2.855,2.855,0,0,0,0,3.345,2.831,2.831,0,0,0,1.418,5.667a6.683,6.683,0,0,0,3.674,1.02,6.683,6.683,0,0,0,3.674-1.02,2.854,2.854,0,0,0,1.418-2.336A2.848,2.848,0,0,0,8.766,1.009Z" transform="translate(6.408 12.046)" fill="curretColor"/><path d="M4.253,2.375a2.589,2.589,0,0,1-2.264,2.8H1.953a.338.338,0,0,0-.123.014A2.6,2.6,0,0,1,0,4.588,3.31,3.31,0,0,0,1.085,1.84,3.356,3.356,0,0,0,.528.263,2.6,2.6,0,0,1,4.253,2.375Z" transform="translate(15.196 5.753)" fill="curretColor" opacity="0.3"/><path d="M.009,2.375a2.589,2.589,0,0,0,2.264,2.8h.036a.338.338,0,0,1,.123.014,2.6,2.6,0,0,0,1.83-.6A3.31,3.31,0,0,1,3.177,1.84,3.357,3.357,0,0,1,3.734.263,2.6,2.6,0,0,0,.009,2.375Z" transform="translate(3.543 5.753)" fill="curretColor" opacity="0.3"/><path d="M5.786,2.958A2.2,2.2,0,0,1,4.528,4.68a5.105,5.105,0,0,1-2.539.564,2.582,2.582,0,0,0,.882-1.678A2.85,2.85,0,0,0,1.664,1.121,5.971,5.971,0,0,0,0,.21a5.653,5.653,0,0,1,4.846.846A2.2,2.2,0,0,1,5.786,2.958Z" transform="translate(15.109 11.86)" fill="curretColor" opacity="0.3"/><path d="M.008,2.959A2.2,2.2,0,0,0,1.266,4.68,5.1,5.1,0,0,0,3.8,5.244a2.582,2.582,0,0,1-.882-1.678A2.85,2.85,0,0,1,4.13,1.121,5.97,5.97,0,0,1,5.794.21a5.652,5.652,0,0,0-4.846.846A2.2,2.2,0,0,0,.008,2.959Z" transform="translate(2.097 11.86)" fill="curretColor" opacity="0.3"/><path d="M0,0H23V23H0Z" fill="none" opacity="0"/></g></g></svg>