<svg xmlns="http://www.w3.org/2000/svg" width="23" height="23" viewBox="0 0 23 23"><g transform="translate(-684 -188)"><g transform="translate(684 188)"><path d="M0,10.513V4.782A4.785,4.785,0,0,1,4.792,0h9.583a4.785,4.785,0,0,1,4.792,4.782v6.689a4.783,4.783,0,0,1-4.792,4.773H12.938a.971.971,0,0,0-.767.383l-1.437,1.907a1.362,1.362,0,0,1-2.3,0L7,16.627a1.065,1.065,0,0,0-.767-.383H4.792A4.783,4.783,0,0,1,0,11.471Z" transform="translate(1.917 1.917)" opacity="0.25"/><path d="M.958,1.917A.958.958,0,1,1,1.917.958.955.955,0,0,1,.958,1.917Z" transform="translate(10.542 9.583)"/><path d="M.958,1.917A.958.958,0,1,1,1.917.958.955.955,0,0,1,.958,1.917Z" transform="translate(14.375 9.583)"/><path d="M.958,1.917A.958.958,0,1,1,1.917.958.955.955,0,0,1,.958,1.917Z" transform="translate(6.708 9.583)"/><path d="M0,0H23V23H0Z" fill="none" opacity="0"/></g></g></svg>