<svg xmlns="http://www.w3.org/2000/svg" viewBox="0 0 24 24"><g transform="translate(-684 -252)"><path d="M0,0H24V24H0Z" transform="translate(684 252)" fill="none" opacity="0"/><path d="M5,2.5A2.5,2.5,0,1,1,2.5,0,2.5,2.5,0,0,1,5,2.5Z" transform="translate(701 255)"/><path d="M5,2.5A2.5,2.5,0,1,1,2.5,0,2.5,2.5,0,0,1,5,2.5Z" transform="translate(701 255)" /><path d="M18.72,5.8A1,1,0,0,1,20,6.76V12c0,3.5-2,5-5,5H5c-3,0-5-1.5-5-5V5C0,1.5,2,0,5,0h7.61a1.009,1.009,0,0,1,.97,1.23,4,4,0,0,0,2.88,4.63A4.112,4.112,0,0,0,18.72,5.8Z" transform="translate(686 255.51)" opacity="0.3"/><path d="M5.753,4.623a3.717,3.717,0,0,1-2.34-.79l-3.13-2.5a.747.747,0,0,1,.93-1.17l3.13,2.5a2.386,2.386,0,0,0,2.81,0l1.18-.94a.747.747,0,1,1,.93,1.17l-1.18.94A3.67,3.67,0,0,1,5.753,4.623Z" transform="translate(690.247 260.247)"/></g></svg>