<svg xmlns="http://www.w3.org/2000/svg" viewBox="0 0 24 24"><path d="M7.41.156l-5.5,2.06A3.191,3.191,0,0,0,0,4.986v8.1a3.32,3.32,0,0,0,1.18,2.36l5.5,4.11a3.119,3.119,0,0,0,3.53,0l5.5-4.11a3.339,3.339,0,0,0,1.18-2.36v-8.1a3.176,3.176,0,0,0-1.91-2.76L9.48.166A3.4,3.4,0,0,0,7.41.156Z" transform="translate(3.55 1.954)" opacity="0.3"/><path d="M5,2.5A2.5,2.5,0,1,0,1.75,4.87V7.5a.75.75,0,0,0,1.5,0V4.87A2.488,2.488,0,0,0,5,2.5Z" transform="translate(9.5 8)"/><path d="M0,0H24V24H0Z" fill="none" opacity="0"/></svg>