<svg xmlns="http://www.w3.org/2000/svg" viewBox="0 0 24.042 24.042"><g transform="translate(-748 -508)"><g transform="translate(748 508)"><path d="M5.76,1.5H.751A.757.757,0,0,1,0,.751.757.757,0,0,1,.751,0H5.76a.757.757,0,0,1,.751.751A.757.757,0,0,1,5.76,1.5Z" transform="translate(8.765 15.277)"/><path d="M.75,9.226a.787.787,0,0,1-.531-.22.754.754,0,0,1-.16-.821L1.922,3.736a2.161,2.161,0,0,1,.09-.2C3.495.12,5.388-.711,8.734.571a.738.738,0,0,1,.421.411.757.757,0,0,1,0,.591L6.219,8.385a.759.759,0,0,1-.691.451H2.673a4.137,4.137,0,0,0-1.633.331A.719.719,0,0,1,.75,9.226ZM6.169,1.5c-1.242,0-2,.811-2.795,2.655-.01.03-.03.06-.04.09L2.022,7.363c.22-.02.431-.03.651-.03H5.027l2.414-5.61A4.2,4.2,0,0,0,6.169,1.5Z" transform="translate(4.459 1.252)"/><path d="M9.085,8.506a.834.834,0,0,1-.22-.03,4.251,4.251,0,0,0-1.2-.17H.751A.766.766,0,0,1,.12,7.965a.778.778,0,0,1-.06-.711L2.965.512A.823.823,0,0,1,3.926.031c.12.04.23.09.351.14l2.364.992A7.25,7.25,0,0,1,9.546,3.057a3.2,3.2,0,0,1,.311.441,2.681,2.681,0,0,1,.28.591,1.944,1.944,0,0,1,.11.341,5.565,5.565,0,0,1-.461,3.616A.766.766,0,0,1,9.085,8.506ZM1.893,6.8h5.78a5.875,5.875,0,0,1,.942.08A3.569,3.569,0,0,0,8.795,4.8c-.02-.09-.04-.13-.05-.17a1.787,1.787,0,0,0-.15-.331,2.118,2.118,0,0,0-.2-.291A5.867,5.867,0,0,0,6.07,2.546L4.087,1.714Z" transform="translate(9.237 1.782)"/><path d="M14.425,14.2H6.612a6.882,6.882,0,0,1-.8-.05c-3.516-.24-5.52-2.244-5.76-5.8A5.825,5.825,0,0,1,0,7.593V5.64A5.622,5.622,0,0,1,5.64,0h9.777A5.457,5.457,0,0,1,17.05.24a5.685,5.685,0,0,1,4.007,5.4V7.593c0,.22-.01.431-.02.631C20.816,12.141,18.532,14.2,14.425,14.2ZM5.63,1.5A4.122,4.122,0,0,0,1.493,5.64V7.593c0,.21.02.421.04.621.19,2.855,1.593,4.257,4.408,4.448a5.432,5.432,0,0,0,.661.05h7.814c3.306,0,4.929-1.453,5.089-4.558.01-.18.02-.361.02-.561V5.64a4.182,4.182,0,0,0-2.935-3.967,4.251,4.251,0,0,0-1.2-.17Z" transform="translate(1.503 8.585)"/><path d="M0,0H24.042V24.042H0Z" fill="none" opacity="0"/></g></g></svg>