<svg xmlns="http://www.w3.org/2000/svg" width="111.921" height="31.998" viewBox="0 0 111.921 31.998"><g transform="translate(-274.502 -113.548)"><path d="M11.384-7.393a5.2,5.2,0,0,0-5.305-5.4,5.211,5.211,0,0,0-5.305,5.4A5.211,5.211,0,0,0,6.079-2,5.2,5.2,0,0,0,11.384-7.393Zm-9.2,0a3.851,3.851,0,0,1,3.9-4.2,3.851,3.851,0,0,1,3.9,4.2,3.859,3.859,0,0,1-3.9,4.2A3.859,3.859,0,0,1,2.184-7.393ZM14.825-2.1H16.25l2-6.594,2,6.594h1.425l2.592-8.306H22.9l-1.88,6.988L19.009-10.41H17.6L15.538-3.437l-1.91-6.973h-1.41Zm16.886,0h1.364V-7a3.222,3.222,0,0,0-3.4-3.562,3.069,3.069,0,0,0-2.668,1.334V-10.41H25.633V-2.1h1.379V-6.7c0-1.789.97-2.668,2.38-2.668,1.395,0,2.319.864,2.319,2.562Zm9.261-3.244c0,.758-.5,1.152-1.364,1.152H37.7V-6.544h1.88C40.442-6.544,40.972-6.1,40.972-5.347Zm-.258-4.2c0,.728-.47,1.107-1.319,1.107H37.7v-2.228h1.7C40.245-10.667,40.715-10.273,40.715-9.546ZM43.595-5A2.58,2.58,0,0,0,41.548-7.56a2.414,2.414,0,0,0,1.8-2.425c0-1.683-1.288-2.759-3.456-2.759h-4.79V-2.1h4.957C42.306-2.1,43.595-3.24,43.595-5Zm.985-1.349c0,2.668,1.652,4.365,3.714,4.365A2.991,2.991,0,0,0,50.916-3.3v1.2h2.592v-8.458H50.916v1.2a2.944,2.944,0,0,0-2.607-1.319C46.232-10.683,44.58-9.015,44.58-6.347Zm6.336.015A1.888,1.888,0,0,1,49.067-4.24a1.911,1.911,0,0,1-1.849-2.107,1.883,1.883,0,0,1,1.849-2.077A1.888,1.888,0,0,1,50.916-6.332ZM61.223-2.1H63.8V-7.045c0-2.274-1.3-3.608-3.259-3.608A3.1,3.1,0,0,0,57.979-9.44v-1.122H55.387V-2.1h2.592V-6.7A1.571,1.571,0,0,1,59.6-8.485,1.571,1.571,0,0,1,61.223-6.7Zm4.381,0H68.2V-5.65L70.773-2.1h3.213L70.439-6.317l3.517-4.244h-3.2L68.2-7.12v-6.2H65.6Z" transform="translate(312.437 143.527)"/><g transform="translate(274.502 113.548)"><path d="M9.823.325,5.871,9.277H1.919A9.534,9.534,0,0,0,0,9.452L1.64,5.623l.066-.144.1-.255a2.5,2.5,0,0,1,.131-.287C3.837.645,5.969-.7,9.823.325Z" transform="translate(6.081 0)" fill="#f4c400"/><path d="M13.3,8.888l-.033-.016a11.25,11.25,0,0,0-3-.415H0L3.69.112,3.739,0c.23.08.476.191.722.271L8.085,1.755a10.882,10.882,0,0,1,4.3,2.681c.148.191.279.367.41.574a2.4,2.4,0,0,1,.328.686,2.1,2.1,0,0,1,.148.415A5.446,5.446,0,0,1,13.3,8.888Z" transform="translate(13.732 0.819)" fill="#f4c400"/><path d="M26.31.319A8.5,8.5,0,0,0,24,0H8A8.015,8.015,0,0,0,4.852.622,7.807,7.807,0,0,0,0,7.787V10.9a8.777,8.777,0,0,0,.082,1.133q.541,7.611,8.36,8.122a9.08,9.08,0,0,0,1.164.08H22.392c6.065,0,9.262-2.808,9.573-8.393.016-.3.033-.622.033-.941V7.787A7.848,7.848,0,0,0,26.31.319ZM20.1,11.855H11.9a1.2,1.2,0,1,1,0-2.393h8.2a1.2,1.2,0,1,1,0,2.393Z" transform="translate(0 11.766)" fill="#0177fc"/></g></g></svg>