<svg xmlns="http://www.w3.org/2000/svg" width="19.998" height="19.998" viewBox="0 0 19.998 19.998"><path d="M5.6,17.235h.1c3.545,0,5.254-1.468,5.55-4.758a.6.6,0,1,0-1.2-.117c-.232,2.635-1.413,3.617-4.36,3.617h-.1c-3.25,0-4.4-1.208-4.4-4.623V5.882c0-3.415,1.15-4.623,4.4-4.623h.1c2.963,0,4.144,1,4.36,3.684a.615.615,0,0,0,.655.571.622.622,0,0,0,.551-.68C10.988,1.494,9.271,0,5.7,0H5.6C1.677,0,0,1.762,0,5.882v5.471C0,15.473,1.677,17.235,5.6,17.235Z" transform="translate(1.397 1.381)" /><path d="M.6,1.2H9.686a.6.6,0,0,0,.6-.6.6.6,0,0,0-.6-.6H.6A.6.6,0,0,0,0,.6.6.6,0,0,0,.6,1.2Z" transform="translate(7.421 9.4)" /><path d="M.6,6.546A.592.592,0,0,0,1.02,6.37L3.7,3.7a.6.6,0,0,0,0-.846L1.02.174a.6.6,0,0,0-.846.846L2.426,3.272.174,5.524a.6.6,0,0,0,0,.846A.579.579,0,0,0,.6,6.546Z" transform="translate(14.73 6.727)" /><path d="M20,0H0V20H20Z" fill="none" opacity="0"/></svg>