<svg xmlns="http://www.w3.org/2000/svg" width="20.002" height="20.002" viewBox="0 0 20.002 20.002"><g transform="translate(-300 -188)"><g transform="translate(300 188)"><path d="M11.007,15.733a1.413,1.413,0,0,1-1.207-.69l-.092-.158A1.658,1.658,0,0,0,8.341,13.9a1.671,1.671,0,0,0-1.374.981l-.092.158a1.413,1.413,0,0,1-1.207.69,1.358,1.358,0,0,1-.693-.191l-1.442-.825a1.583,1.583,0,0,1-.583-2.158,1.666,1.666,0,0,0,.167-1.678,1.663,1.663,0,0,0-1.533-.7A1.586,1.586,0,0,1,0,8.6V7.133A1.586,1.586,0,0,1,1.583,5.549a1.663,1.663,0,0,0,1.533-.7,1.666,1.666,0,0,0-.167-1.678,1.583,1.583,0,0,1,.583-2.158L4.974.191A1.358,1.358,0,0,1,5.668,0,1.413,1.413,0,0,1,6.875.691L6.967.85a1.658,1.658,0,0,0,1.368.981A1.671,1.671,0,0,0,9.708.85L9.8.691A1.413,1.413,0,0,1,11.007,0,1.355,1.355,0,0,1,11.7.191l1.442.825a1.583,1.583,0,0,1,.584,2.158,1.666,1.666,0,0,0-.167,1.678,1.663,1.663,0,0,0,1.533.7,1.586,1.586,0,0,1,1.584,1.584V8.6a1.586,1.586,0,0,1-1.584,1.584,1.663,1.663,0,0,0-1.533.7,1.666,1.666,0,0,0,.167,1.678,1.579,1.579,0,0,1,.155,1.2,1.562,1.562,0,0,1-.739.957l-1.442.825A1.356,1.356,0,0,1,11.007,15.733ZM8.333,4.8A3.067,3.067,0,1,0,11.4,7.867,3.07,3.07,0,0,0,8.333,4.8Z" transform="translate(1.668 2.134)" opacity="0.3"/><path d="M0,0H20V20H0Z" fill="none" opacity="0"/><path d="M4.39,2.2A2.2,2.2,0,1,1,2.2,0,2.2,2.2,0,0,1,4.39,2.2Z" transform="translate(7.806 7.806)"/></g></g></svg>