<svg xmlns="http://www.w3.org/2000/svg" width="23" height="23" viewBox="0 0 23 23"><g transform="translate(-108 -444)"><g transform="translate(108 444)"><path d="M0,0H23V23H0Z" fill="none" opacity="0"/><path d="M5.75,3.833V6.153A2.3,2.3,0,0,1,3.277,8.625H0v-6.7A1.935,1.935,0,0,1,1.936,0,3.828,3.828,0,0,1,5.75,3.833Z" transform="translate(15.333 1.917)" /><path d="M0,4.792V18.208a.955.955,0,0,0,1.533.767l1.639-1.227a.966.966,0,0,1,1.265.1l1.591,1.6a.966.966,0,0,0,1.361,0L9,17.835a.95.95,0,0,1,1.246-.086l1.639,1.227a.96.96,0,0,0,1.533-.767V1.917A1.922,1.922,0,0,1,15.333,0H3.833C.958,0,0,1.715,0,3.833Z" transform="translate(1.917 1.917)"  opacity="0.3"/><g transform="translate(5.031 7.906)"><path d="M6.469,1.438H.719A.724.724,0,0,1,0,.719.724.724,0,0,1,.719,0h5.75a.724.724,0,0,1,.719.719A.724.724,0,0,1,6.469,1.438Z" /></g><g transform="translate(5.75 11.74)"><path d="M5.031,1.438H.719A.724.724,0,0,1,0,.719.724.724,0,0,1,.719,0H5.031A.724.724,0,0,1,5.75.719.724.724,0,0,1,5.031,1.438Z" /></g></g></g></svg>